<?xml version="1.0" encoding="utf-8"?>
<!-- Generator: Adobe Illustrator 25.0.0, SVG Export Plug-In . SVG Version: 6.00 Build 0)  -->
<svg version="1.1" id="Layer_1" xmlns="http://www.w3.org/2000/svg" xmlns:xlink="http://www.w3.org/1999/xlink" x="0px" y="0px"
	 viewBox="0 0 178.5 251.1" style="enable-background:new 0 0 178.5 251.1;" xml:space="preserve">
<style type="text/css">
	.st0{fill:#FFFFFF;}
	.st1{fill:#F6D2D0;}
	.st2{fill:#E8E8E8;}
</style>
<path class="st0" d="M12.3,15.3C-4.2,34.2-1.3,69.7,4.8,91.6s13.6,19.6,22.4,57.7s-8.7,101.8,19.6,101.8c16.1,0,19.2-42,24.8-71.5
	c4.2-22.3,11.4-34.2,17.5-34.2c20.4,0,21.9,105.7,43.9,105.7c24.9,0,9.8-88.3,17.5-111.6s15.6-39.9,21.9-56
	c6.3-16.1,15.1-62.5-17.1-78.1s-49.7,7.9-63.8,7.9S38.1-14,12.3,15.3z"/>
<ellipse cx="50.9" cy="47.7" rx="12.3" ry="12.7"/>
<ellipse class="st1" cx="36.8" cy="77.6" rx="17.2" ry="8.8"/>
<ellipse class="st1" cx="141.9" cy="77.6" rx="17.2" ry="8.8"/>
<g>
	<path d="M89.2,117c-9.3,0-16.7-4.3-21.3-12.3c-3.4-6-4.1-11.9-4.2-12.1c-0.1-1,0.6-1.9,1.6-2.1c1-0.1,1.9,0.6,2.1,1.6
		c0,0.1,0.7,5.5,3.7,10.8c4,6.9,10.1,10.4,18.1,10.4c8,0,13.9-3.5,17.7-10.3c2.9-5.3,3.4-10.7,3.5-10.8c0.1-1,1-1.8,2-1.7
		c1,0.1,1.8,1,1.7,2c0,0.2-0.6,6.2-3.8,12.1C107.2,110.3,101,117,89.2,117z"/>
</g>
<path class="st2" d="M52.2,9.1c-5.7,3.1-13.8-0.8-23,9C18,29.9,12,40.6,9.4,39.2S8.7,24.4,19.6,14.6s18.1-9.6,23.5-9.6
	C48.5,4.9,57.9,5.9,52.2,9.1z"/>
<ellipse transform="matrix(0.227 -0.9739 0.9739 0.227 -41.1637 47.5491)" class="st2" cx="9.4" cy="49.7" rx="6.5" ry="3.2"/>
<path class="st2" d="M75,8.9c14.5,10.8,29.7,13.1,45.3,10.2C110.3,17.5,97,16.9,96,12.6c0,0-3.9,1.5-8.5,0.2S75,8.9,75,8.9z"/>
<circle class="st0" cx="52.2" cy="40.8" r="3.3"/>
<circle class="st0" cx="54.4" cy="46.2" r="1.8"/>
<circle class="st0" cx="49.9" cy="46.1" r="1.3"/>
<ellipse cx="134.3" cy="47.7" rx="12.3" ry="12.7"/>
<circle class="st0" cx="135.6" cy="40.8" r="3.3"/>
<circle class="st0" cx="137.8" cy="46.2" r="1.8"/>
<circle class="st0" cx="133.3" cy="46.1" r="1.3"/>
</svg>
